<mxfile host="65bd71144e">
    <diagram name="Cat" id="Kbpzw5jS7sq628csrfxw">
        <mxGraphModel grid="1" gridSize="10" guides="1" tooltips="1" connect="1" arrows="1" page="1" fold="1" pageScale="1" pageWidth="827" pageHeight="1169" math="0" shadow="0">
            <root>
                <mxCell id="CKS2YXcwOehzu6ZwlMJZ-0"/>
                <mxCell id="CKS2YXcwOehzu6ZwlMJZ-1" parent="CKS2YXcwOehzu6ZwlMJZ-0"/>
                <mxCell id="CKS2YXcwOehzu6ZwlMJZ-2" value="Cat" style="swimlane;fontStyle=1;align=center;verticalAlign=top;childLayout=stackLayout;horizontal=1;startSize=26;horizontalStack=0;resizeParent=1;resizeParentMax=0;resizeLast=0;collapsible=1;marginBottom=0;" parent="CKS2YXcwOehzu6ZwlMJZ-1" vertex="1">
                    <mxGeometry x="309" y="290" width="210" height="270" as="geometry"/>
                </mxCell>
                <mxCell id="CKS2YXcwOehzu6ZwlMJZ-3" value="- name: String" style="text;strokeColor=none;fillColor=none;align=left;verticalAlign=top;spacingLeft=4;spacingRight=4;overflow=hidden;rotatable=0;points=[[0,0.5],[1,0.5]];portConstraint=eastwest;" parent="CKS2YXcwOehzu6ZwlMJZ-2" vertex="1">
                    <mxGeometry y="26" width="210" height="26" as="geometry"/>
                </mxCell>
                <mxCell id="CKS2YXcwOehzu6ZwlMJZ-4" value="- furColor: String" style="text;strokeColor=none;fillColor=none;align=left;verticalAlign=top;spacingLeft=4;spacingRight=4;overflow=hidden;rotatable=0;points=[[0,0.5],[1,0.5]];portConstraint=eastwest;" parent="CKS2YXcwOehzu6ZwlMJZ-2" vertex="1">
                    <mxGeometry y="52" width="210" height="26" as="geometry"/>
                </mxCell>
                <mxCell id="CKS2YXcwOehzu6ZwlMJZ-5" value="- age: int" style="text;strokeColor=none;fillColor=none;align=left;verticalAlign=top;spacingLeft=4;spacingRight=4;overflow=hidden;rotatable=0;points=[[0,0.5],[1,0.5]];portConstraint=eastwest;" parent="CKS2YXcwOehzu6ZwlMJZ-2" vertex="1">
                    <mxGeometry y="78" width="210" height="26" as="geometry"/>
                </mxCell>
                <mxCell id="ACSTraMrHRkw0a1lhC6l-19" value="- isFemale: boolean" style="text;strokeColor=none;fillColor=none;align=left;verticalAlign=top;spacingLeft=4;spacingRight=4;overflow=hidden;rotatable=0;points=[[0,0.5],[1,0.5]];portConstraint=eastwest;" parent="CKS2YXcwOehzu6ZwlMJZ-2" vertex="1">
                    <mxGeometry y="104" width="210" height="26" as="geometry"/>
                </mxCell>
                <mxCell id="CKS2YXcwOehzu6ZwlMJZ-9" value="- counter: int" style="text;strokeColor=none;fillColor=none;align=left;verticalAlign=top;spacingLeft=4;spacingRight=4;overflow=hidden;rotatable=0;points=[[0,0.5],[1,0.5]];portConstraint=eastwest;" parent="CKS2YXcwOehzu6ZwlMJZ-2" vertex="1">
                    <mxGeometry y="130" width="210" height="26" as="geometry"/>
                </mxCell>
                <mxCell id="CKS2YXcwOehzu6ZwlMJZ-6" value="" style="line;strokeWidth=1;fillColor=none;align=left;verticalAlign=middle;spacingTop=-1;spacingLeft=3;spacingRight=3;rotatable=0;labelPosition=right;points=[];portConstraint=eastwest;" parent="CKS2YXcwOehzu6ZwlMJZ-2" vertex="1">
                    <mxGeometry y="156" width="210" height="8" as="geometry"/>
                </mxCell>
                <mxCell id="CKS2YXcwOehzu6ZwlMJZ-7" value="+ getStringAttributes(String): String" style="text;strokeColor=none;fillColor=none;align=left;verticalAlign=top;spacingLeft=4;spacingRight=4;overflow=hidden;rotatable=0;points=[[0,0.5],[1,0.5]];portConstraint=eastwest;" parent="CKS2YXcwOehzu6ZwlMJZ-2" vertex="1">
                    <mxGeometry y="164" width="210" height="28" as="geometry"/>
                </mxCell>
                <mxCell id="CKS2YXcwOehzu6ZwlMJZ-8" value="+ getAge(): String" style="text;strokeColor=none;fillColor=none;align=left;verticalAlign=top;spacingLeft=4;spacingRight=4;overflow=hidden;rotatable=0;points=[[0,0.5],[1,0.5]];portConstraint=eastwest;" parent="CKS2YXcwOehzu6ZwlMJZ-2" vertex="1">
                    <mxGeometry y="192" width="210" height="26" as="geometry"/>
                </mxCell>
                <mxCell id="ACSTraMrHRkw0a1lhC6l-8" value="- checkCompliance(): String" style="text;strokeColor=none;fillColor=none;align=left;verticalAlign=top;spacingLeft=4;spacingRight=4;overflow=hidden;rotatable=0;points=[[0,0.5],[1,0.5]];portConstraint=eastwest;" parent="CKS2YXcwOehzu6ZwlMJZ-2" vertex="1">
                    <mxGeometry y="218" width="210" height="26" as="geometry"/>
                </mxCell>
                <mxCell id="ACSTraMrHRkw0a1lhC6l-18" value="- checkEscalationLevel(): String" style="text;strokeColor=none;fillColor=none;align=left;verticalAlign=top;spacingLeft=4;spacingRight=4;overflow=hidden;rotatable=0;points=[[0,0.5],[1,0.5]];portConstraint=eastwest;" parent="CKS2YXcwOehzu6ZwlMJZ-2" vertex="1">
                    <mxGeometry y="244" width="210" height="26" as="geometry"/>
                </mxCell>
            </root>
        </mxGraphModel>
    </diagram>
    <diagram name="Cat_Tomcat" id="GjKwTD0aLFSlCiGCE-FC">
        <mxGraphModel dx="592" dy="479" grid="1" gridSize="10" guides="1" tooltips="1" connect="1" arrows="1" fold="1" page="1" pageScale="1" pageWidth="827" pageHeight="1169" math="0" shadow="0">
            <root>
                <mxCell id="ekbUKJyAvyOw_0pWY4zu-0"/>
                <mxCell id="ekbUKJyAvyOw_0pWY4zu-1" parent="ekbUKJyAvyOw_0pWY4zu-0"/>
                <mxCell id="ekbUKJyAvyOw_0pWY4zu-2" value="Cat" style="swimlane;fontStyle=1;align=center;verticalAlign=top;childLayout=stackLayout;horizontal=1;startSize=26;horizontalStack=0;resizeParent=1;resizeParentMax=0;resizeLast=0;collapsible=1;marginBottom=0;" parent="ekbUKJyAvyOw_0pWY4zu-1" vertex="1">
                    <mxGeometry x="80" y="240" width="210" height="218" as="geometry"/>
                </mxCell>
                <mxCell id="ekbUKJyAvyOw_0pWY4zu-3" value="- name: String" style="text;strokeColor=none;fillColor=none;align=left;verticalAlign=top;spacingLeft=4;spacingRight=4;overflow=hidden;rotatable=0;points=[[0,0.5],[1,0.5]];portConstraint=eastwest;" parent="ekbUKJyAvyOw_0pWY4zu-2" vertex="1">
                    <mxGeometry y="26" width="210" height="26" as="geometry"/>
                </mxCell>
                <mxCell id="ekbUKJyAvyOw_0pWY4zu-4" value="- furColor: String" style="text;strokeColor=none;fillColor=none;align=left;verticalAlign=top;spacingLeft=4;spacingRight=4;overflow=hidden;rotatable=0;points=[[0,0.5],[1,0.5]];portConstraint=eastwest;" parent="ekbUKJyAvyOw_0pWY4zu-2" vertex="1">
                    <mxGeometry y="52" width="210" height="26" as="geometry"/>
                </mxCell>
                <mxCell id="ekbUKJyAvyOw_0pWY4zu-5" value="- age: int" style="text;strokeColor=none;fillColor=none;align=left;verticalAlign=top;spacingLeft=4;spacingRight=4;overflow=hidden;rotatable=0;points=[[0,0.5],[1,0.5]];portConstraint=eastwest;" parent="ekbUKJyAvyOw_0pWY4zu-2" vertex="1">
                    <mxGeometry y="78" width="210" height="26" as="geometry"/>
                </mxCell>
                <mxCell id="ekbUKJyAvyOw_0pWY4zu-7" value="- counter: int" style="text;strokeColor=none;fillColor=none;align=left;verticalAlign=top;spacingLeft=4;spacingRight=4;overflow=hidden;rotatable=0;points=[[0,0.5],[1,0.5]];portConstraint=eastwest;" parent="ekbUKJyAvyOw_0pWY4zu-2" vertex="1">
                    <mxGeometry y="104" width="210" height="26" as="geometry"/>
                </mxCell>
                <mxCell id="ekbUKJyAvyOw_0pWY4zu-8" value="" style="line;strokeWidth=1;fillColor=none;align=left;verticalAlign=middle;spacingTop=-1;spacingLeft=3;spacingRight=3;rotatable=0;labelPosition=right;points=[];portConstraint=eastwest;" parent="ekbUKJyAvyOw_0pWY4zu-2" vertex="1">
                    <mxGeometry y="130" width="210" height="8" as="geometry"/>
                </mxCell>
                <mxCell id="ekbUKJyAvyOw_0pWY4zu-9" value="+ getStringAttributes(String): String" style="text;strokeColor=none;fillColor=none;align=left;verticalAlign=top;spacingLeft=4;spacingRight=4;overflow=hidden;rotatable=0;points=[[0,0.5],[1,0.5]];portConstraint=eastwest;" parent="ekbUKJyAvyOw_0pWY4zu-2" vertex="1">
                    <mxGeometry y="138" width="210" height="28" as="geometry"/>
                </mxCell>
                <mxCell id="ekbUKJyAvyOw_0pWY4zu-10" value="+ getAge(): String" style="text;strokeColor=none;fillColor=none;align=left;verticalAlign=top;spacingLeft=4;spacingRight=4;overflow=hidden;rotatable=0;points=[[0,0.5],[1,0.5]];portConstraint=eastwest;" parent="ekbUKJyAvyOw_0pWY4zu-2" vertex="1">
                    <mxGeometry y="166" width="210" height="26" as="geometry"/>
                </mxCell>
                <mxCell id="ekbUKJyAvyOw_0pWY4zu-12" value="- checkEscalationLevel(): String" style="text;strokeColor=none;fillColor=none;align=left;verticalAlign=top;spacingLeft=4;spacingRight=4;overflow=hidden;rotatable=0;points=[[0,0.5],[1,0.5]];portConstraint=eastwest;" parent="ekbUKJyAvyOw_0pWY4zu-2" vertex="1">
                    <mxGeometry y="192" width="210" height="26" as="geometry"/>
                </mxCell>
                <mxCell id="ekbUKJyAvyOw_0pWY4zu-13" value="Tomcat" style="swimlane;fontStyle=1;align=center;verticalAlign=top;childLayout=stackLayout;horizontal=1;startSize=26;horizontalStack=0;resizeParent=1;resizeParentMax=0;resizeLast=0;collapsible=1;marginBottom=0;" parent="ekbUKJyAvyOw_0pWY4zu-1" vertex="1">
                    <mxGeometry x="400" y="240" width="210" height="166" as="geometry"/>
                </mxCell>
                <mxCell id="ekbUKJyAvyOw_0pWY4zu-14" value="- name: String" style="text;strokeColor=none;fillColor=none;align=left;verticalAlign=top;spacingLeft=4;spacingRight=4;overflow=hidden;rotatable=0;points=[[0,0.5],[1,0.5]];portConstraint=eastwest;" parent="ekbUKJyAvyOw_0pWY4zu-13" vertex="1">
                    <mxGeometry y="26" width="210" height="26" as="geometry"/>
                </mxCell>
                <mxCell id="ekbUKJyAvyOw_0pWY4zu-15" value="- furColor: String" style="text;strokeColor=none;fillColor=none;align=left;verticalAlign=top;spacingLeft=4;spacingRight=4;overflow=hidden;rotatable=0;points=[[0,0.5],[1,0.5]];portConstraint=eastwest;" parent="ekbUKJyAvyOw_0pWY4zu-13" vertex="1">
                    <mxGeometry y="52" width="210" height="26" as="geometry"/>
                </mxCell>
                <mxCell id="ekbUKJyAvyOw_0pWY4zu-16" value="- age: int" style="text;strokeColor=none;fillColor=none;align=left;verticalAlign=top;spacingLeft=4;spacingRight=4;overflow=hidden;rotatable=0;points=[[0,0.5],[1,0.5]];portConstraint=eastwest;" parent="ekbUKJyAvyOw_0pWY4zu-13" vertex="1">
                    <mxGeometry y="78" width="210" height="26" as="geometry"/>
                </mxCell>
                <mxCell id="ekbUKJyAvyOw_0pWY4zu-19" value="" style="line;strokeWidth=1;fillColor=none;align=left;verticalAlign=middle;spacingTop=-1;spacingLeft=3;spacingRight=3;rotatable=0;labelPosition=right;points=[];portConstraint=eastwest;" parent="ekbUKJyAvyOw_0pWY4zu-13" vertex="1">
                    <mxGeometry y="104" width="210" height="8" as="geometry"/>
                </mxCell>
                <mxCell id="ekbUKJyAvyOw_0pWY4zu-20" value="+ getStringAttributes(String): String" style="text;strokeColor=none;fillColor=none;align=left;verticalAlign=top;spacingLeft=4;spacingRight=4;overflow=hidden;rotatable=0;points=[[0,0.5],[1,0.5]];portConstraint=eastwest;" parent="ekbUKJyAvyOw_0pWY4zu-13" vertex="1">
                    <mxGeometry y="112" width="210" height="28" as="geometry"/>
                </mxCell>
                <mxCell id="ekbUKJyAvyOw_0pWY4zu-21" value="+ getAge(): String" style="text;strokeColor=none;fillColor=none;align=left;verticalAlign=top;spacingLeft=4;spacingRight=4;overflow=hidden;rotatable=0;points=[[0,0.5],[1,0.5]];portConstraint=eastwest;" parent="ekbUKJyAvyOw_0pWY4zu-13" vertex="1">
                    <mxGeometry y="140" width="210" height="26" as="geometry"/>
                </mxCell>
            </root>
        </mxGraphModel>
    </diagram>
    <diagram name="SuperCat_Cat_Tomcat" id="wztdsKZFeioOu5pu1riI">
        <mxGraphModel dx="796" dy="564" grid="1" gridSize="10" guides="1" tooltips="1" connect="1" arrows="1" fold="1" page="1" pageScale="1" pageWidth="827" pageHeight="1169" math="0" shadow="0">
            <root>
                <mxCell id="I0uCV-kJ4_JoVseyqe2n-0"/>
                <mxCell id="I0uCV-kJ4_JoVseyqe2n-1" parent="I0uCV-kJ4_JoVseyqe2n-0"/>
                <mxCell id="I0uCV-kJ4_JoVseyqe2n-2" value="Cat" style="swimlane;fontStyle=1;align=center;verticalAlign=top;childLayout=stackLayout;horizontal=1;startSize=26;horizontalStack=0;resizeParent=1;resizeParentMax=0;resizeLast=0;collapsible=1;marginBottom=0;" parent="I0uCV-kJ4_JoVseyqe2n-1" vertex="1">
                    <mxGeometry x="160" y="280" width="200" height="112" as="geometry"/>
                </mxCell>
                <mxCell id="I0uCV-kJ4_JoVseyqe2n-6" value="- counter: int" style="text;strokeColor=none;fillColor=none;align=left;verticalAlign=top;spacingLeft=4;spacingRight=4;overflow=hidden;rotatable=0;points=[[0,0.5],[1,0.5]];portConstraint=eastwest;" parent="I0uCV-kJ4_JoVseyqe2n-2" vertex="1">
                    <mxGeometry y="26" width="200" height="26" as="geometry"/>
                </mxCell>
                <mxCell id="I0uCV-kJ4_JoVseyqe2n-7" value="" style="line;strokeWidth=1;fillColor=none;align=left;verticalAlign=middle;spacingTop=-1;spacingLeft=3;spacingRight=3;rotatable=0;labelPosition=right;points=[];portConstraint=eastwest;" parent="I0uCV-kJ4_JoVseyqe2n-2" vertex="1">
                    <mxGeometry y="52" width="200" height="8" as="geometry"/>
                </mxCell>
                <mxCell id="I0uCV-kJ4_JoVseyqe2n-9" value="+ getAge(): String" style="text;strokeColor=none;fillColor=none;align=left;verticalAlign=top;spacingLeft=4;spacingRight=4;overflow=hidden;rotatable=0;points=[[0,0.5],[1,0.5]];portConstraint=eastwest;" parent="I0uCV-kJ4_JoVseyqe2n-2" vertex="1">
                    <mxGeometry y="60" width="200" height="26" as="geometry"/>
                </mxCell>
                <mxCell id="I0uCV-kJ4_JoVseyqe2n-10" value="- checkEscalationLevel(): String" style="text;strokeColor=none;fillColor=none;align=left;verticalAlign=top;spacingLeft=4;spacingRight=4;overflow=hidden;rotatable=0;points=[[0,0.5],[1,0.5]];portConstraint=eastwest;" parent="I0uCV-kJ4_JoVseyqe2n-2" vertex="1">
                    <mxGeometry y="86" width="200" height="26" as="geometry"/>
                </mxCell>
                <mxCell id="I0uCV-kJ4_JoVseyqe2n-11" value="Tomcat" style="swimlane;fontStyle=1;align=center;verticalAlign=top;childLayout=stackLayout;horizontal=1;startSize=26;horizontalStack=0;resizeParent=1;resizeParentMax=0;resizeLast=0;collapsible=1;marginBottom=0;" parent="I0uCV-kJ4_JoVseyqe2n-1" vertex="1">
                    <mxGeometry x="400" y="280" width="210" height="60" as="geometry"/>
                </mxCell>
                <mxCell id="I0uCV-kJ4_JoVseyqe2n-15" value="" style="line;strokeWidth=1;fillColor=none;align=left;verticalAlign=middle;spacingTop=-1;spacingLeft=3;spacingRight=3;rotatable=0;labelPosition=right;points=[];portConstraint=eastwest;" parent="I0uCV-kJ4_JoVseyqe2n-11" vertex="1">
                    <mxGeometry y="26" width="210" height="8" as="geometry"/>
                </mxCell>
                <mxCell id="I0uCV-kJ4_JoVseyqe2n-17" value="+ getAge(): String" style="text;strokeColor=none;fillColor=none;align=left;verticalAlign=top;spacingLeft=4;spacingRight=4;overflow=hidden;rotatable=0;points=[[0,0.5],[1,0.5]];portConstraint=eastwest;" parent="I0uCV-kJ4_JoVseyqe2n-11" vertex="1">
                    <mxGeometry y="34" width="210" height="26" as="geometry"/>
                </mxCell>
                <mxCell id="I0uCV-kJ4_JoVseyqe2n-18" value="SuperCat" style="swimlane;fontStyle=1;align=center;verticalAlign=top;childLayout=stackLayout;horizontal=1;startSize=26;horizontalStack=0;resizeParent=1;resizeParentMax=0;resizeLast=0;collapsible=1;marginBottom=0;" parent="I0uCV-kJ4_JoVseyqe2n-1" vertex="1">
                    <mxGeometry x="280" y="20" width="200" height="140" as="geometry"/>
                </mxCell>
                <mxCell id="I0uCV-kJ4_JoVseyqe2n-19" value="- name: String" style="text;strokeColor=none;fillColor=none;align=left;verticalAlign=top;spacingLeft=4;spacingRight=4;overflow=hidden;rotatable=0;points=[[0,0.5],[1,0.5]];portConstraint=eastwest;" parent="I0uCV-kJ4_JoVseyqe2n-18" vertex="1">
                    <mxGeometry y="26" width="200" height="26" as="geometry"/>
                </mxCell>
                <mxCell id="I0uCV-kJ4_JoVseyqe2n-20" value="- furColor: String" style="text;strokeColor=none;fillColor=none;align=left;verticalAlign=top;spacingLeft=4;spacingRight=4;overflow=hidden;rotatable=0;points=[[0,0.5],[1,0.5]];portConstraint=eastwest;" parent="I0uCV-kJ4_JoVseyqe2n-18" vertex="1">
                    <mxGeometry y="52" width="200" height="26" as="geometry"/>
                </mxCell>
                <mxCell id="I0uCV-kJ4_JoVseyqe2n-21" value="# age: int" style="text;strokeColor=none;fillColor=none;align=left;verticalAlign=top;spacingLeft=4;spacingRight=4;overflow=hidden;rotatable=0;points=[[0,0.5],[1,0.5]];portConstraint=eastwest;" parent="I0uCV-kJ4_JoVseyqe2n-18" vertex="1">
                    <mxGeometry y="78" width="200" height="26" as="geometry"/>
                </mxCell>
                <mxCell id="I0uCV-kJ4_JoVseyqe2n-22" value="" style="line;strokeWidth=1;fillColor=none;align=left;verticalAlign=middle;spacingTop=-1;spacingLeft=3;spacingRight=3;rotatable=0;labelPosition=right;points=[];portConstraint=eastwest;" parent="I0uCV-kJ4_JoVseyqe2n-18" vertex="1">
                    <mxGeometry y="104" width="200" height="8" as="geometry"/>
                </mxCell>
                <mxCell id="I0uCV-kJ4_JoVseyqe2n-23" value="# getStringAttributes(String): String" style="text;strokeColor=none;fillColor=none;align=left;verticalAlign=top;spacingLeft=4;spacingRight=4;overflow=hidden;rotatable=0;points=[[0,0.5],[1,0.5]];portConstraint=eastwest;" parent="I0uCV-kJ4_JoVseyqe2n-18" vertex="1">
                    <mxGeometry y="112" width="200" height="28" as="geometry"/>
                </mxCell>
                <mxCell id="-LjeShswfXlZ4KDvIigD-0" value="Extends" style="endArrow=block;endSize=16;endFill=0;html=1;exitX=0.5;exitY=0;exitDx=0;exitDy=0;" parent="I0uCV-kJ4_JoVseyqe2n-1" source="I0uCV-kJ4_JoVseyqe2n-2" edge="1">
                    <mxGeometry width="160" relative="1" as="geometry">
                        <mxPoint x="330" y="180" as="sourcePoint"/>
                        <mxPoint x="370" y="160" as="targetPoint"/>
                    </mxGeometry>
                </mxCell>
                <mxCell id="-LjeShswfXlZ4KDvIigD-1" value="Extends" style="endArrow=block;endSize=16;endFill=0;html=1;exitX=0.5;exitY=0;exitDx=0;exitDy=0;entryX=0.471;entryY=0.981;entryDx=0;entryDy=0;entryPerimeter=0;" parent="I0uCV-kJ4_JoVseyqe2n-1" source="I0uCV-kJ4_JoVseyqe2n-11" target="I0uCV-kJ4_JoVseyqe2n-23" edge="1">
                    <mxGeometry width="160" relative="1" as="geometry">
                        <mxPoint x="190" y="250" as="sourcePoint"/>
                        <mxPoint x="320" y="190" as="targetPoint"/>
                    </mxGeometry>
                </mxCell>
                <mxCell id="SnIGMCsSJHNsm5uLVWcE-5" value="&lt;h1&gt;Generalisierung&lt;/h1&gt;&lt;div&gt;von unten nach oben&lt;/div&gt;" style="text;html=1;strokeColor=none;fillColor=none;spacing=5;spacingTop=-20;whiteSpace=wrap;overflow=hidden;rounded=0;" vertex="1" parent="I0uCV-kJ4_JoVseyqe2n-1">
                    <mxGeometry x="40" y="40" width="190" height="70" as="geometry"/>
                </mxCell>
                <mxCell id="SnIGMCsSJHNsm5uLVWcE-6" value="&lt;h1&gt;Spezialisierung&lt;/h1&gt;&lt;div&gt;von oben nach unten&lt;/div&gt;" style="text;html=1;strokeColor=none;fillColor=none;spacing=5;spacingTop=-20;whiteSpace=wrap;overflow=hidden;rounded=0;" vertex="1" parent="I0uCV-kJ4_JoVseyqe2n-1">
                    <mxGeometry x="560" y="40" width="190" height="70" as="geometry"/>
                </mxCell>
                <mxCell id="SnIGMCsSJHNsm5uLVWcE-8" value="" style="endArrow=classic;html=1;" edge="1" parent="I0uCV-kJ4_JoVseyqe2n-1">
                    <mxGeometry width="50" height="50" relative="1" as="geometry">
                        <mxPoint x="120" y="200" as="sourcePoint"/>
                        <mxPoint x="120" y="120" as="targetPoint"/>
                    </mxGeometry>
                </mxCell>
                <mxCell id="SnIGMCsSJHNsm5uLVWcE-9" value="" style="endArrow=classic;html=1;" edge="1" parent="I0uCV-kJ4_JoVseyqe2n-1">
                    <mxGeometry width="50" height="50" relative="1" as="geometry">
                        <mxPoint x="640" y="120" as="sourcePoint"/>
                        <mxPoint x="640" y="200" as="targetPoint"/>
                    </mxGeometry>
                </mxCell>
            </root>
        </mxGraphModel>
    </diagram>
</mxfile>